<?xml version="1.0" encoding="utf-8"?>
<!-- Generated by IcoMoon.io -->
<svg version="1.1" xmlns="http://www.w3.org/2000/svg" xmlns:xlink="http://www.w3.org/1999/xlink" width="176" height="80" viewBox="0 0 176 80">
<svg id="icon-Facebook" width="16" height="32" viewBox="0 0 16 32" x="0" y="0">
<path fill="#fff" d="M14.829 0h-3.508c-0.185-0.019-0.399-0.030-0.617-0.030-3.557 0-6.44 2.883-6.44 6.44 0 0.167 0.006 0.332 0.019 0.495l-0.001-0.022v3.846h-4.25l0.013 4.271h4.235l-0.064 17.020h6.438v-16.956l3.693-0.064 1.326-4.271h-5.087v-4.377c0-0.001 0-0.001 0-0.002 0-1.088 0.882-1.97 1.97-1.97 0.091 0 0.181 0.006 0.269 0.018l-0.010-0.001h1.993z"></path>
</svg>
<svg id="icon-LinkedIn" width="31" height="32" viewBox="0 0 31 32" x="48" y="0">
<path fill="#fff" d="M7.657 3.447c0 0.001 0 0.002 0 0.004 0 1.904-1.543 3.447-3.447 3.447-0.143 0-0.284-0.009-0.422-0.026l0.017 0.002c-1.74-0.201-3.078-1.666-3.078-3.444 0-1.914 1.552-3.466 3.466-3.466s3.466 1.552 3.466 3.466c0 0.006 0 0.012-0 0.018v-0.001zM0.633 32.020v-22.347h6.106v22.347h-6.106zM10.811 9.673h5.437l0.651 2.271c1.322-1.867 3.473-3.070 5.905-3.070 0.225 0 0.448 0.010 0.668 0.030l-0.028-0.002c4.504 0 7.617 2.616 7.617 9.105v13.952h-6.084v-12.978c0.007-0.091 0.010-0.197 0.010-0.304 0-2.459-1.989-4.453-4.447-4.461h-0.001c-1.617 0.021-2.984 1.074-3.472 2.529l-0.008 0.026c-0.146 0.442-0.23 0.951-0.23 1.479 0 0.079 0.002 0.157 0.006 0.235l-0-0.011v13.485h-6.037v-22.286z"></path>
</svg>
<svg id="icon-Mail" width="43" height="32" viewBox="0 0 43 32" x="96" y="0">
<path fill="#fff" d="M1.632 3.002c1.305 0.724 16.718 10.747 17.391 11.122 0.711 0.338 1.545 0.536 2.425 0.536s1.714-0.198 2.46-0.551l-0.035 0.015c0.673-0.375 16.080-10.399 17.391-11.122s2.546-3.002 0.145-3.002h-39.933c-2.388 0-1.152 2.278 0.155 3.002zM41.833 8.523c-1.485 0.804-17.037 10.64-17.956 11.122-0.711 0.338-1.545 0.536-2.425 0.536s-1.714-0.198-2.46-0.551l0.035 0.015c-0.909-0.482-16.461-10.318-17.956-11.122-1.045-0.563-1.034 0.080-1.034 0.59v20.261c0.218 1.369 1.284 2.436 2.635 2.651l0.018 0.002h37.513c1.37-0.217 2.437-1.284 2.654-2.635l0.002-0.018v-20.261c0-0.509 0.008-1.152-1.048-0.59z"></path>
</svg>
<svg id="icon-Twitter" width="39" height="32" viewBox="0 0 39 32" x="0" y="48">
<path fill="#fff" d="M38.821 3.794c-1.332 0.616-2.877 1.059-4.499 1.25l-0.072 0.007c1.647-1.018 2.883-2.565 3.483-4.4l0.016-0.057c-1.454 0.889-3.147 1.564-4.954 1.926l-0.1 0.017c-1.455-1.562-3.524-2.536-5.82-2.536-4.389 0-7.947 3.558-7.947 7.947 0 0.042 0 0.084 0.001 0.126l-0-0.006c0 0.003 0 0.007 0 0.010 0 0.653 0.075 1.288 0.217 1.897l-0.011-0.056c-6.652-0.367-12.488-3.571-16.366-8.413l-0.034-0.044c-0.678 1.167-1.079 2.569-1.079 4.064 0 0.002 0 0.004 0 0.005v-0c-0 0.011-0 0.024-0 0.037 0 2.767 1.392 5.21 3.513 6.665l0.027 0.018c-1.331-0.026-2.57-0.396-3.64-1.025l0.035 0.019v0.114c-0 0.013-0 0.029-0 0.044 0 3.853 2.711 7.072 6.329 7.855l0.053 0.010c-0.627 0.184-1.348 0.292-2.093 0.297h-0.003c-0.018 0-0.039 0-0.060 0-0.509 0-1.005-0.058-1.481-0.169l0.044 0.009c1.019 3.225 3.946 5.537 7.426 5.623l0.010 0c-2.675 2.15-6.111 3.451-9.852 3.451-0.011 0-0.022 0-0.033-0h0.002c-0.050 0.001-0.108 0.001-0.167 0.001-0.61 0-1.21-0.042-1.798-0.123l0.068 0.008c3.424 2.278 7.63 3.634 12.154 3.634 0.015 0 0.030 0 0.045-0h-0.002c12.509-0.021 22.642-10.167 22.642-22.679 0-0.111-0.001-0.222-0.002-0.332l0 0.017c0-0.343 0-0.686-0.023-1.029 1.56-1.165 2.877-2.549 3.935-4.123l0.038-0.060z"></path>
</svg>
</svg>
